<?xml version="1.0" encoding="utf-8"?>
<!-- Generator: Adobe Illustrator 23.0.4, SVG Export Plug-In . SVG Version: 6.00 Build 0)  -->
<svg version="1.1" id="Layer_1" xmlns="http://www.w3.org/2000/svg" xmlns:xlink="http://www.w3.org/1999/xlink" x="0px" y="0px"
	 viewBox="0 0 175.6 63.42" style="enable-background:new 0 0 175.6 63.42;" xml:space="preserve">
<style type="text/css">
	.st0{fill:#AD6D07;}
	.st1{fill:#D48903;}
	.st2{fill:#A16300;}
	.st3{fill:#FFD299;}
</style>
<path class="st0" d="M175.4,21.5c0.9,7.14-3.49,13.78-15.22,20.53c-15.9,9.15-41.65,13.96-70.77,17.63
	C62.92,63,38.97,65.25,21.49,61.39C5.57,57.88,1.16,52.3,0.15,44.28c-1.21-9.6,4.9-15.36,25.1-23.58
	c15.17-6.17,34.8-11.19,56.5-13.93C132.35,0.4,173.28,4.69,175.4,21.5z"/>
<path class="st1" d="M175.4,21.5c0.9,7.14-0.91,9.44-12.82,16.21c-16.15,9.18-42.3,14.04-71.86,17.77
	c-26.89,3.39-51.2,5.68-68.94,1.86C5.63,53.85,1.16,52.3,0.15,44.28c-1.21-9.6,5.01-19.39,25.52-27.65
	C41.08,10.44,61.01,5.38,83.04,2.6C134.41-3.87,173.28,4.69,175.4,21.5z"/>
<path class="st2" d="M15.14,33.9c10.53-13.1,26.7-21.37,33.4-24.71c1.44-0.72-15.75,3.7-18.8,5.15
	C11.45,23.05,15.14,33.9,15.14,33.9z"/>
<path class="st3" d="M15.14,33.9c2.95-3.37,9.69-6.96,12.68-8.71c9.89-5.79,15.39-13.36,20.72-16.01c1.44-0.71-11.3,3.16-14.46,4.38
	C15.08,20.86,15.14,33.9,15.14,33.9z"/>
<path class="st2" d="M36.43,40.07c12.31-3.8,24.98-17.84,27.03-19.48c7.71-6.18,8.99-9.14,14.87-13.75
	c4.35-3.4,5.07-3.31,10.26-4.72c2.03-0.55-14.02-1.82-25.93,5.15c-4.32,2.53-7.02,4.09-13.27,14.61
	C45.79,27.93,36.43,40.07,36.43,40.07z"/>
<path class="st3" d="M39.64,38.87c12.31-3.8,25.84-17.14,27.88-18.78c7.71-6.18,8.99-9.14,14.87-13.75
	c4.35-3.4,5.07-3.31,10.26-4.72c2.03-0.55-14.02-1.82-25.93,5.15c-4.32,2.53-7.02,4.09-13.27,14.61
	C49.85,27.42,39.64,38.87,39.64,38.87z"/>
<path class="st2" d="M74.81,38.87c13.03-3.87,26.53-17.91,28.7-19.55c8.19-6.2,9.57-9.15,15.81-13.76c4.62-3.41,5.65-4.43,11.3-5
	c1.58-0.16-12.58-2.92-27.85,5.56c-4.59,2.55-7.44,4.12-14.13,14.6C84.79,26.74,74.81,38.87,74.81,38.87z"/>
<path class="st3" d="M77.42,37.96C90.45,34.1,105,20.65,107.17,19.01c8.19-6.2,9.57-9.15,15.81-13.76c4.62-3.41,5.89-3.53,11.54-4.1
	c1.58-0.16-12.82-3.82-28.09,4.66c-4.59,2.55-7.44,4.12-14.13,14.6C88.45,26.43,77.42,37.96,77.42,37.96z"/>
<path class="st2" d="M114.72,34.72c0,0,5.51-3.86,10.03-11.78S135.58,8.27,146.7,5.35c4.03-1.06,9.15-0.39,10.9,0.85
	c0.95,0.67,0.13,6.45-10.93,13.21C129.33,30.01,114.72,34.72,114.72,34.72z"/>
<path class="st3" d="M117.4,33.77c0,0,5.35-3.51,9.87-11.44c4.52-7.92,10.84-14.67,21.96-17.59c4.03-1.06,9.39,1.05,11.14,2.29
	c0.95,0.67-0.11,5.01-11.17,11.78C131.86,29.41,117.4,33.77,117.4,33.77z"/>
</svg>
